<svg width="96" height="96" viewBox="0 0 96 96" fill="none" xmlns="http://www.w3.org/2000/svg">
<g id="a-frame">
<path id="Vector" fill-rule="evenodd" clip-rule="evenodd" d="M44.721 4.24996C43.807 4.93796 34.119 24.175 23.191 47L3.323 88.5L5.864 89.888L8.405 91.276L9.824 89.138L11.244 87H48H84.756L86.178 89.142L87.601 91.284L89.8 90.107C91.01 89.459 92 88.552 92 88.09C92 87.628 89.525 81.983 86.5 75.545L81 63.839V37.92V12H78H75L74.917 31.25L74.834 50.5L63.544 27.406C51.502 2.77196 49.674 0.522958 44.721 4.24996ZM41.323 23.018L35.146 36H47.573C54.408 36 60.014 35.663 60.031 35.25C60.077 34.153 48.59 10.114 48 10.072C47.725 10.053 44.72 15.879 41.323 23.018ZM23.41 60.604C18.51 70.836 14.35 79.611 14.167 80.104C13.983 80.597 18.146 81 23.417 81H33V69.5V58L35 56L37 54H48H59L61 56L63 58V69.5V81H72.583C77.854 81 82.017 80.605 81.833 80.122C81.65 79.64 77.484 70.865 72.576 60.622L63.653 42H47.987H32.32L23.41 60.604ZM39 70.5V81H48H57V70.5V60H48H39V70.5Z" fill="black"/>
</g>
</svg>
