<svg width="96" height="96" viewBox="0 0 96 96" fill="none" xmlns="http://www.w3.org/2000/svg">
<g id="adapted">
<path id="Vector" fill-rule="evenodd" clip-rule="evenodd" d="M56.301 5.08004L52.102 7.15904L49.933 11.639L47.764 16.12L48.394 20.06L49.024 24H39.084H29.145L27.323 26.339C26.32 27.625 23.931 31.941 22.013 35.929L18.526 43.18L20.454 44.59C21.515 45.366 22.741 46 23.18 46C23.619 46 25.788 42.4 28 38L32.022 30H37.011C39.755 30 42 30.162 42 30.359C42 30.557 40.411 34.157 38.47 38.359C36.35 42.947 34.336 46 33.43 46C30.479 46 24.163 49.992 20.686 54.054C13.246 62.745 13.513 76.243 21.291 84.75L23.349 87H13.174H3V90V93H48H93V90V87H84.5C79.825 87 76 86.838 76 86.639C76 86.441 76.926 81.736 78.059 76.184L80.118 66.089L79.06 64.112C77.875 61.898 76.985 61.554 68.587 60.06C65.335 59.481 62.5 58.833 62.286 58.619C62.072 58.406 63.764 54.084 66.046 49.016C69.969 40.306 70.34 38.063 68.559 33.848L67.861 32.195L70.952 30.369C74.27 28.409 78 21.864 78 18C78 16.697 77.073 13.716 75.94 11.376L73.88 7.12004L69.624 5.06004C64.265 2.46604 61.574 2.47004 56.301 5.08004ZM56.923 11.923C53.701 15.145 53.085 19.367 55.38 22.505L56.759 24.392L55.782 27.196L54.804 30H52.121H49.439L45.748 37.459C43.718 41.561 42.382 45.099 42.779 45.32C43.175 45.542 44.85 46.039 46.5 46.425C48.15 46.81 51.236 48.508 53.358 50.197L57.216 53.268L58.088 51.884C58.567 51.123 60.167 47.673 61.644 44.217L64.328 37.935L62.166 35.01L60.004 32.086L61.162 29.543C61.817 28.107 63.155 27 64.237 27C67.358 27 72 21.618 72 18C72 13.698 67.302 9.00004 63 9.00004C60.848 9.00004 58.918 9.92804 56.923 11.923ZM31.5 52.665C26.867 55.113 24.877 57.153 22.881 61.5C18.656 70.7 22.098 80.456 31.21 85.106C42.739 90.991 57 82.084 57 69C57 64.625 54.397 58.571 51.32 55.788C46.254 51.207 37.015 49.751 31.5 52.665ZM62.994 68.25C62.985 73.535 61.034 79.245 57.869 83.25L54.906 87H62.283H69.659L71.341 79.25C72.266 74.987 73.283 70.533 73.601 69.352L74.18 67.204L69.041 66.102C66.214 65.496 63.699 65 63.451 65C63.203 65 62.997 66.463 62.994 68.25Z" fill="black"/>
</g>
</svg>
