<svg width="96" height="96" viewBox="0 0 96 96" fill="none" xmlns="http://www.w3.org/2000/svg">
<g id="amazing-pools">
<path id="Vector" fill-rule="evenodd" clip-rule="evenodd" d="M35.756 10.755C33.191 12.345 30 17.415 30 19.901C30 20.506 31.35 21 33 21C34.65 21 36 20.55 36 20C36 18.264 39.917 15 42 15C45.341 15 48 18.545 48 23V27H30H12V30V33H30H48V40.5V48L46.25 48.007C45.288 48.01 43.15 48.907 41.5 50C37.695 52.52 34.305 52.52 30.5 50C26.559 47.39 22.556 47.458 16.789 50.233L12.078 52.5L12.039 55.68L12 58.86L14.75 58.052C16.263 57.607 18.964 56.401 20.753 55.372L24.007 53.5L28.189 55.886C33.497 58.916 38.502 58.916 43.815 55.886L48 53.5L52.185 55.886C57.498 58.916 62.503 58.916 67.811 55.886L71.993 53.5L75.247 55.372C77.036 56.401 79.737 57.607 81.25 58.052L84 58.86L83.961 55.68L83.922 52.5L79.211 50.233C76.62 48.986 73.938 47.973 73.25 47.983L72 48V40.5V33H78H84V30V27H78H72V22.404C72 16.781 69.637 12.53 65.393 10.516C61.246 8.54798 57.494 8.59499 54 10.659L51.191 12.318L47.694 10.659C43.261 8.55499 39.251 8.58799 35.756 10.755ZM56 17C54.667 18.333 54 20.333 54 23V27H60H66V23C66 18.545 63.341 15 60 15C58.9 15 57.1 15.9 56 17ZM54.211 41.729L54.5 50.457L57.25 51.422C59.016 52.041 60.984 52.041 62.75 51.422L65.5 50.457L65.789 41.729L66.078 33H60H53.922L54.211 41.729ZM16.297 65.331L12.093 67.5L12.047 70.68L12 73.86L14.75 73.052C16.262 72.607 18.964 71.401 20.753 70.372L24.007 68.5L28.189 70.886C30.488 72.199 34.004 73.273 36 73.273C37.996 73.273 41.513 72.199 43.815 70.886L48 68.5L52.185 70.886C54.487 72.199 58.004 73.273 60 73.273C61.996 73.273 65.512 72.199 67.811 70.886L71.993 68.5L75.247 70.372C77.036 71.401 79.737 72.607 81.25 73.052L84 73.86L83.98 70.68L83.959 67.5L79.021 65.25C72.946 62.482 69.401 62.417 65.5 65C61.701 67.516 58.955 67.516 54.261 65C49.537 62.468 45.324 62.468 41.5 65C39.85 66.093 37.375 66.987 36 66.987C34.625 66.987 32.15 66.093 30.5 65C26.667 62.462 21.628 62.579 16.297 65.331ZM16.297 80.331L12.093 82.5L12.047 85.68L12 88.86L14.75 88.052C16.262 87.607 18.964 86.401 20.753 85.372L24.007 83.5L28.189 85.886C30.488 87.199 34.004 88.273 36 88.273C37.996 88.273 41.513 87.199 43.815 85.886L48 83.5L52.185 85.886C54.487 87.199 58.004 88.273 60 88.273C61.996 88.273 65.512 87.199 67.811 85.886L71.993 83.5L75.247 85.372C77.036 86.401 79.737 87.607 81.25 88.052L84 88.86L83.98 85.68L83.959 82.5L79.021 80.25C72.946 77.482 69.401 77.417 65.5 80C61.701 82.516 58.955 82.516 54.261 80C49.537 77.468 45.324 77.468 41.5 80C39.85 81.093 37.375 81.987 36 81.987C34.625 81.987 32.15 81.093 30.5 80C26.667 77.462 21.628 77.579 16.297 80.331Z" fill="black"/>
</g>
</svg>
