<svg width="97" height="96" viewBox="0 0 97 96" fill="none" xmlns="http://www.w3.org/2000/svg">
<g id="amazing-view">
<path id="Vector" fill-rule="evenodd" clip-rule="evenodd" d="M5.035 4.934C3.617 7.584 3.617 88.416 5.035 91.066L6.07 93H16.622H27.174L28.306 90L29.438 87H62.219H95V84C95 82 94.5 81 93.5 81H92V48V15H93.5C94.5 15 95 14 95 12V9H65.219H35.438L34.306 6L33.174 3H19.622H6.07L5.035 4.934ZM11 26.975V44.95L13.651 43.943C18.733 42.01 22.064 39.515 24.773 35.611L27.5 31.68L27.836 20.34L28.172 9H19.586H11V26.975ZM34.732 22.361C34.001 32.025 30.939 39.004 25.22 44.038C22.744 46.217 20.395 48 20.001 48C19.606 48 20.682 49.499 22.391 51.331L25.5 54.662L28.5 52.835C32.401 50.459 36.697 50.518 40.774 53.004C44.917 55.53 48.083 55.53 52.226 53.004C56.387 50.467 60.613 50.467 64.774 53.004C68.917 55.53 72.083 55.53 76.226 53.004C78.027 51.906 80.737 51.006 82.25 51.004L85 51V33V15H60.144H35.289L34.732 22.361ZM62.301 25.772C61.092 26.723 59.619 28.794 59.029 30.375L57.955 33.25L59.727 36.875L61.5 40.5L65.241 41.424L68.981 42.348L71.645 40.924C73.11 40.141 74.921 38.038 75.668 36.25L77.027 33L75.562 29.494C73.347 24.192 66.69 22.324 62.301 25.772ZM65.39 31.426C64.48 33.797 65.767 36.191 67.747 35.81C68.854 35.597 69.5 34.561 69.5 33C69.5 30.149 66.344 28.941 65.39 31.426ZM11 69.5V87H16.5H22V74.45V61.901L20.52 59.039C18.854 55.818 14.431 52 12.365 52H11V69.5ZM30.25 58.674C28.026 60.226 27.465 62.441 28.567 65.314L29.134 66.792L33.022 66.27L36.909 65.749L40.512 67.874C45.006 70.526 48.034 70.559 52.226 68.004C56.387 65.467 60.613 65.467 64.774 68.004C68.917 70.53 72.083 70.53 76.226 68.004C78.027 66.906 80.737 66.006 82.25 66.004L85 66V61.5V57H82.904C81.752 57 79.614 57.833 78.154 58.852C76.694 59.87 74.076 60.976 72.336 61.309L69.172 61.916L64.336 59.462C58.529 56.516 57.584 56.459 54.154 58.852C52.694 59.87 50.076 60.976 48.336 61.309L45.172 61.916L40.336 59.462C34.751 56.628 33.341 56.518 30.25 58.674ZM30.75 73.392C29.737 74.161 29 76.043 29 77.86V81H57H85V76.5V72H82.904C81.752 72 79.614 72.833 78.154 73.852C76.694 74.87 74.076 75.976 72.336 76.309L69.172 76.916L64.336 74.462C58.529 71.516 57.584 71.459 54.154 73.852C52.694 74.87 50.076 75.976 48.336 76.309L45.172 76.916L40.336 74.462C34.859 71.683 33.24 71.502 30.75 73.392Z" fill="black"/>
</g>
</svg>
