<svg width="96" height="96" viewBox="0 0 96 96" fill="none" xmlns="http://www.w3.org/2000/svg">
<g id="beach-front">
<path id="Vector" fill-rule="evenodd" clip-rule="evenodd" d="M56.314 4.95C52.985 6.98 51 9.776 51 12.434C51 15.002 55.929 14.361 58.179 11.5C60.53 8.511 64.941 8.173 67.319 10.8L68.948 12.6L66.095 14.285C63.252 15.964 60 21.362 60 24.401C60 25.484 60.888 25.993 62.75 25.978L65.5 25.957L67 22.728C68.995 18.435 70.227 18.658 71.282 23.5C72.7 30.008 71.578 40.836 68.771 47.75L66.232 54H69.544H72.856L75.167 48.25L77.477 42.5L77.486 30.697L77.495 18.893L79.247 21.057C80.211 22.248 81 23.847 81 24.611C81 25.5 82.125 26 84.125 26H87.25L86.651 23.004C85.764 18.572 83.32 15.38 79.382 13.511L75.88 11.849L77.063 10.425C78.978 8.117 83.607 8.685 85.821 11.5C87.02 13.024 88.805 14 90.394 14H93V12.223C93 5.418 82.162 0.796 74.95 4.526L72 6.051L69.05 4.526C65.038 2.451 60.145 2.614 56.314 4.95ZM25.615 12.246C13.753 18.68 6.075 27.89 6.022 35.75L6 39H8.961H11.922L12.211 47.75L12.5 56.5H33H53.5L53.789 47.75L54.078 39H57.039H60L59.978 35.75C59.944 30.658 56.751 24.86 51.266 19.929C46.206 15.379 35.397 8.977 32.86 9.027C32.112 9.041 28.852 10.49 25.615 12.246ZM26.658 18.613C21.184 21.461 13 29.167 13 31.474V33H33H53V31.667C53 28.032 37.529 15.913 33.059 16.047C32.201 16.072 29.321 17.227 26.658 18.613ZM18 45V51H24H30V48V45H33H36V48V51H42H48V45V39H33H18V45ZM11.303 65.807L6.106 68.5L6.053 71.25L6 74H8.268C9.515 74 12.191 72.875 14.215 71.5C16.238 70.125 18.842 69 20 69C21.158 69 23.762 70.125 25.785 71.5L29.464 74H34H38.536L42.215 71.5C44.238 70.125 46.842 69 48 69C49.158 69 51.762 70.125 53.785 71.5L57.464 74H62H66.536L70.215 71.5C72.238 70.125 74.842 69 76 69C77.158 69 79.762 70.125 81.785 71.5C83.809 72.875 86.485 74 87.732 74H90V71C90 69.041 89.495 68 88.544 68C87.744 68 85.431 66.875 83.405 65.5C78.659 62.279 73.701 62.27 68.5 65.474C63.393 68.62 60.012 68.626 55.405 65.5C50.659 62.279 45.701 62.27 40.5 65.474C35.393 68.62 32.012 68.626 27.405 65.5C22.642 62.268 17.963 62.357 11.303 65.807ZM11.303 80.807L6.106 83.5L6.053 86.25L6 89H8.268C9.515 89 12.191 87.875 14.215 86.5C16.238 85.125 18.842 84 20 84C21.158 84 23.762 85.125 25.785 86.5L29.464 89H34H38.536L42.215 86.5C44.238 85.125 46.842 84 48 84C49.158 84 51.762 85.125 53.785 86.5L57.464 89H62H66.536L70.215 86.5C72.238 85.125 74.842 84 76 84C77.158 84 79.762 85.125 81.785 86.5C83.809 87.875 86.485 89 87.732 89H90V86C90 84.041 89.495 83 88.544 83C87.744 83 85.431 81.875 83.405 80.5C78.659 77.279 73.701 77.27 68.5 80.474C63.393 83.62 60.012 83.626 55.405 80.5C50.659 77.279 45.701 77.27 40.5 80.474C35.393 83.62 32.012 83.626 27.405 80.5C22.642 77.268 17.963 77.357 11.303 80.807Z" fill="black"/>
</g>
</svg>
