<svg width="96" height="96" viewBox="0 0 96 96" fill="none" xmlns="http://www.w3.org/2000/svg">
<g id="bnb">
<path id="Vector" fill-rule="evenodd" clip-rule="evenodd" d="M37.413 7.251C36.265 9.588 33.452 15.012 31.163 19.304C28.873 23.596 27 28.433 27 30.054V33H30H33V30.669C33 29.388 34.189 26.125 35.642 23.419C46.386 3.417 46.521 3 42.25 3.001L39.5 3.002L37.413 7.251ZM54 5.331C54 6.612 52.811 9.875 51.358 12.581C40.614 32.583 40.477 33.007 44.75 32.988L47.5 32.976L50.115 27.738C51.554 24.857 54.366 19.408 56.365 15.63C58.364 11.851 60 7.463 60 5.88V3H57H54V5.331ZM69 5.331C69 6.612 67.811 9.875 66.358 12.581C55.614 32.583 55.477 33.007 59.75 32.988L62.5 32.976L65.115 27.738C66.554 24.857 69.366 19.408 71.365 15.63C73.364 11.851 75 7.463 75 5.88V3H72H69V5.331ZM18.683 36.65C18.307 37.026 18 47.203 18 59.266V81.198L19.623 84.619C20.516 86.5 22.654 89.043 24.373 90.27L27.5 92.5L42.411 92.825L57.321 93.149L61.632 91.503C66.516 89.637 70.835 85.077 71.67 80.902L72.233 78.083L79.367 77.791L86.5 77.5V61.5V45.5L79.305 45.207L72.111 44.915L71.805 40.707L71.5 36.5L45.433 36.234C31.096 36.087 19.059 36.275 18.683 36.65ZM24 61.577V81.154L26.995 84.149L29.99 87.144L44.932 86.822L59.875 86.5L62.937 83.563L66 80.626V61.313V42H54H42V47.934V53.867L44.75 54.184L47.5 54.5V63V71.5H39H30.5V63V54.5L33.25 54.184L36 53.867V47.934V42H30H24V61.577ZM72 61.5V72H76.5H81V61.5V51H76.5H72V61.5ZM36 63V66H39H42V63V60H39H36V63Z" fill="black"/>
</g>
</svg>
