<svg width="96" height="96" viewBox="0 0 96 96" fill="none" xmlns="http://www.w3.org/2000/svg">
<g id="boats">
<path id="Vector" fill-rule="evenodd" clip-rule="evenodd" d="M8 3.343C8 3.532 8.876 6.232 9.946 9.343L11.892 15L9.946 20.657C8.876 23.768 8 26.468 8 26.657C8 26.845 16.325 27 26.5 27H45V48V69H26.873H8.746L9.216 73.894C9.474 76.586 10.594 80.623 11.704 82.866C13.858 87.221 13.726 88 10.833 88H9V91.43V94.86L12.123 93.965C13.84 93.472 16.299 92.379 17.588 91.535C20.761 89.455 23.214 89.604 27.507 92.136C32.137 94.868 37.863 94.868 42.493 92.136C47.036 89.456 48.964 89.456 53.507 92.136C58.137 94.868 63.863 94.868 68.493 92.136C72.786 89.604 75.239 89.455 78.412 91.535C79.701 92.379 82.16 93.472 83.877 93.965L87 94.86V91.43V88H85.167C82.274 88 82.142 87.221 84.296 82.866C85.406 80.623 86.526 76.586 86.784 73.894L87.254 69H69.127H51V66.023V63.046L68.737 62.773L86.474 62.5L86.794 60.833C86.971 59.916 78.691 46.529 68.396 31.083L49.677 3H28.838C17.377 3 8 3.155 8 3.343ZM17.15 12C17.878 14.088 17.878 15.912 17.15 18L16.104 21H30.552H45V15V9H30.552H16.104L17.15 12ZM51 36.8V57H64.559H78.118L77.375 55.75C75.604 52.772 52.665 18.41 51.874 17.55C51.373 17.005 51 25.212 51 36.8ZM16.026 77.567C18.122 83.081 19.016 84 22.285 84.004C24.053 84.006 26.973 84.906 28.774 86.004C30.575 87.102 33.377 88 35 88C36.623 88 39.425 87.102 41.226 86.004C45.4 83.459 50.6 83.459 54.774 86.004C56.575 87.102 59.377 88 61 88C62.623 88 65.425 87.102 67.226 86.004C69.027 84.906 71.947 84.006 73.715 84.004C76.984 84 77.878 83.081 79.974 77.567L80.95 75H48H15.05L16.026 77.567Z" fill="black"/>
</g>
</svg>
