<svg width="96" height="96" viewBox="0 0 96 96" fill="none" xmlns="http://www.w3.org/2000/svg">
<g id="cabins">
<path id="home" fill-rule="evenodd" clip-rule="evenodd" d="M44.5 6.436C42.85 7.186 32.283 17.066 21.018 28.391L0.537003 48.981L2.764 51.209L4.992 53.437L6.684 51.745L8.376 50.053L9.63 53.7L10.884 57.348L9.85 59.281C9.281 60.344 9.08 63.303 9.404 65.857C10.122 71.521 10.122 72.163 9.391 78.732L8.809 83.963L11.828 86.982L14.846 90H48H81.154L84.172 86.982L87.191 83.963L86.609 78.732C85.878 72.163 85.878 71.521 86.596 65.857C86.92 63.303 86.719 60.344 86.15 59.281L85.116 57.348L86.37 53.7L87.624 50.053L89.316 51.745L91.008 53.437L93.219 51.225L95.43 49.014L91.215 44.719L87 40.424V26.212V12H84H81V23.205V34.411L66.673 20.205C58.792 12.392 51.854 6 51.254 6C50.654 6 49.564 5.791 48.832 5.536C48.099 5.282 46.15 5.687 44.5 6.436ZM40.5 18L34.563 24H48H61.437L55.5 18C52.234 14.7 48.859 12 48 12C47.141 12 43.766 14.7 40.5 18ZM24 34.5L19.584 39H48H76.416L72 34.5L67.584 30H48H28.416L24 34.5ZM16.25 45.662C14.928 46.196 14.589 49.765 15.607 52.418L16.214 54H24.985H33.755L35 52.5L36.245 51H47.431H58.618L60.559 52.468C62.545 53.971 76.172 54.639 79.418 53.393C81.023 52.777 81.498 49.461 80.393 46.582L79.786 45L48.643 45.079C31.514 45.122 16.938 45.385 16.25 45.662ZM39 70.5V84H48H57V70.5V57H48H39V70.5ZM16.25 60.662C14.928 61.196 14.589 64.765 15.607 67.418L16.214 69H24.607H33V64.5V60L25.25 60.079C20.987 60.122 16.938 60.385 16.25 60.662ZM63 64.5V69H70.418C74.498 69 78.548 68.727 79.418 68.393C81.023 67.777 81.498 64.461 80.393 61.582L79.786 60H71.393H63V64.5ZM16.25 75.662C14.928 76.196 14.589 79.765 15.607 82.418L16.214 84H24.607H33V79.5V75L25.25 75.079C20.987 75.122 16.938 75.385 16.25 75.662ZM63 79.5V84H70.418C74.498 84 78.548 83.727 79.418 83.393C81.023 82.777 81.498 79.461 80.393 76.582L79.786 75H71.393H63V79.5Z" fill="black"/>
</g>
</svg>
