<svg width="96" height="96" viewBox="0 0 96 96" fill="none" xmlns="http://www.w3.org/2000/svg">
<g id="camping">
<path id="Vector" fill-rule="evenodd" clip-rule="evenodd" d="M60 8.05C60 13.031 54.303 19 49.55 19C48.482 19 48 19.968 48 22.111V25.223L51.75 24.537C53.813 24.16 56.513 23.2 57.75 22.403L60 20.954V23.543C60 24.967 59.537 26.997 58.97 28.055C57.751 30.334 52.941 33 50.05 33H48V36V39L50.25 38.956C51.487 38.932 54.188 38.31 56.25 37.574L60 36.236V40.618V45H42.593H25.185L14.052 65.671C7.92901 77.04 3.05601 87.052 3.22301 87.921L3.52701 89.5H48H92.473L92.791 87.848C92.966 86.939 88.165 77.039 82.122 65.848L71.135 45.5L68.567 45.184L66 44.867V40.551V36.236L69.75 37.574C71.813 38.31 74.513 38.932 75.75 38.956L78 39V36.128V33.256L74.072 32.628C69.438 31.887 66 28.145 66 23.842V20.954L68.25 22.403C69.487 23.2 72.188 24.16 74.25 24.537L78 25.223V22.111C78 19.968 77.518 19 76.45 19C71.697 19 66 13.031 66 8.05V6H63H60V8.05ZM17.756 13.755C14.606 15.708 12 20.571 12 24.497C12 30.418 18.064 36 24.497 36C30.418 36 36 29.936 36 23.503C36 14.961 25.155 9.167 17.756 13.755ZM20 20C18.9 21.1 18 22.9 18 24C18 26.576 21.424 30 24 30C26.576 30 30 26.576 30 24C30 22.9 29.1 21.1 28 20C26.9 18.9 25.1 18 24 18C22.9 18 21.1 18.9 20 20ZM33.779 54.227C34.863 56.027 38.485 62.675 41.828 69C45.171 75.325 48.492 81.299 49.208 82.275L50.509 84.049L67.58 83.775L84.651 83.5L76.002 67.5L67.353 51.5L49.58 51.227L31.808 50.953L33.779 54.227ZM17.369 72.197L11.238 83.5L17.235 83.801C20.533 83.966 23.42 83.913 23.65 83.683C23.88 83.453 23.94 78.232 23.784 72.08L23.5 60.895L17.369 72.197ZM30.012 72.25L30 84H36.459H42.917L38.748 76.25C36.454 71.987 33.553 66.7 32.301 64.5L30.024 60.5L30.012 72.25Z" fill="black"/>
</g>
</svg>
