<svg width="96" height="96" viewBox="0 0 96 96" fill="none" xmlns="http://www.w3.org/2000/svg">
<g id="castle">
<path id="Vector" fill-rule="evenodd" clip-rule="evenodd" d="M45.7 3.633C45.315 4.018 45 9.403 45 15.6V26.867L42.25 27.184L39.5 27.5L39.193 31.75C38.989 34.556 38.415 36 37.5 36C36.585 36 36.011 34.556 35.807 31.75L35.5 27.5H27H18.5L18.212 36.765L17.925 46.03L20.94 50.413L23.955 54.795L24.228 73.648L24.5 92.5H48H71.5L71.772 73.648L72.045 54.795L75.06 50.413L78.075 46.03L77.788 36.765L77.5 27.5H69H60.5L60.193 31.75C59.989 34.556 59.415 36 58.5 36C57.585 36 57.011 34.556 56.807 31.75L56.5 27.5L53.75 27.184L51 26.867V23.977V21.088L58.25 20.794L65.5 20.5V12V3.5L55.95 3.216C50.698 3.06 46.086 3.248 45.7 3.633ZM51 12V15H55.5H60V12V9H55.5H51V12ZM24 38.57V44.14L27 48.5L30 52.86V69.93V87H33H36V79.901C36 71.648 37.744 67.173 41.92 64.706C47.362 61.492 55.079 63.478 58.294 68.92L60 71.809V79.404V87H63H66V75V63H63H60V60V57H63H66V54.93C66 53.792 67.35 50.898 69 48.5L72 44.14V38.57V33H69.057H66.115L65.807 37.25L65.5 41.5H58.5H51.5L51.193 37.25L50.885 33H48H45.115L44.807 37.25L44.5 41.5H37.5H30.5L30.193 37.25L29.885 33H26.943H24V38.57ZM51 51V54H55.5H60V51V48H55.5H51V51ZM44 71L42 73V80V87H48H54V80V73L52 71C50.9 69.9 49.1 69 48 69C46.9 69 45.1 69.9 44 71Z" fill="black"/>
</g>
</svg>
