<svg width="96" height="96" viewBox="0 0 96 96" fill="none" xmlns="http://www.w3.org/2000/svg">
<g id="chefs-kitchen">
<path id="Vector" fill-rule="evenodd" clip-rule="evenodd" d="M39.5 7.89C37.3 8.905 34.409 10.921 33.076 12.368C31.382 14.207 29.639 15 27.294 15C23.467 15 17.489 17.263 14.645 19.788C11.875 22.248 9.04401 28.925 9.04401 33C9.04401 37.567 12.067 44.121 15.374 46.723L18 48.788V55.671C18 60.101 18.523 63.301 19.466 64.648L20.932 66.741L21.216 78.121L21.5 89.5H48H74.5L74.784 78.121L75.068 66.741L76.534 64.648C77.477 63.301 78 60.101 78 55.671V48.788L80.626 46.723C83.859 44.179 86.949 37.611 86.978 33.218C87.003 29.472 84.733 23.485 82.212 20.645C79.746 17.869 73.08 15.047 68.924 15.022L65.349 15L62.924 12.368C57.349 6.315 47.141 4.363 39.5 7.89ZM40.708 14.09C38.622 15.19 36.412 17.196 35.797 18.546C34.57 21.238 34.74 21.182 27.269 21.369L22.039 21.5L18.769 24.769L15.5 28.038V33.134V38.229L19.75 42L24 45.772V52.804C24 62.144 24.413 63 28.92 63H32.626L31.494 53.95L30.362 44.9L33.431 45.2L36.5 45.5L37.5 54L38.5 62.5L41.75 62.813L45 63.127V54.063V45H48H51V54V63H53.933C57.359 63 57.631 62.372 58.579 52.25L59.258 45H62.442H65.626L64.5 54L63.374 63H66.105C67.607 63 69.548 62.727 70.418 62.393L72 61.786V53.779V45.772L76.25 42L80.5 38.229V33.134V28.038L77.231 24.769L73.961 21.5L68.4 21.489L62.839 21.478L60.169 18.331C54.788 11.988 47.642 10.43 40.708 14.09ZM27 76.5V84H48H69V76.5V69H48H27V76.5Z" fill="black"/>
</g>
</svg>
