<svg width="97" height="96" viewBox="0 0 97 96" fill="none" xmlns="http://www.w3.org/2000/svg">
<g id="containers" clip-path="url(#clip0_4_28)">
<path id="Vector" fill-rule="evenodd" clip-rule="evenodd" d="M1.184 15.649C0.808 16.025 0.5 32.908 0.5 53.167V90H3.5H6.5V87V84H48.5H90.5V87.063V90.127L93.75 89.813L97 89.5L97.262 52.287L97.524 15.074L49.696 15.019C23.391 14.99 1.56 15.273 1.184 15.649ZM0.953 53C0.953 73.625 1.086 82.063 1.249 71.75C1.411 61.438 1.411 44.563 1.249 34.25C1.086 23.938 0.953 32.375 0.953 53ZM6.5 49.5V78H48.5H90.5V49.5V21H48.5H6.5V49.5ZM15.5 49.5V72H18.5H21.5V49.5V27H18.5H15.5V49.5ZM30.5 49.5V72H33.5H36.5V49.5V27H33.5H30.5V49.5ZM45.5 49.5V72H48.5H51.5V49.5V27H48.5H45.5V49.5ZM60.5 49.5V72H63.5H66.5V49.5V27H63.5H60.5V49.5ZM75.5 49.5V72H78.5H81.5V49.5V27H78.5H75.5V49.5Z" fill="black"/>
</g>
<defs>
<clipPath id="clip0_4_28">
<rect width="96" height="96" fill="white" transform="translate(0.5)"/>
</clipPath>
</defs>
</svg>
