<svg width="96" height="96" viewBox="0 0 96 96" fill="none" xmlns="http://www.w3.org/2000/svg">
<g id="country-side">
<path id="Vector" fill-rule="evenodd" clip-rule="evenodd" d="M18 8.6C18 12.08 12.08 18 8.6 18H6V21V24L8.75 23.994C10.262 23.99 12.804 23.307 14.399 22.476C17.812 20.696 18.564 21.077 17.087 23.837C15.468 26.863 11.028 30 8.365 30H6V33V36L8.75 35.994C10.262 35.99 12.789 35.315 14.364 34.494C15.94 33.672 17.402 33 17.614 33C17.826 33 18 34.974 18 37.386V41.773L13.372 42.467C6.684 43.47 6 43.898 6 47.082V49.95L9.25 49.225C11.038 48.826 16.775 48.518 22 48.54L31.5 48.581L38.25 50.872C41.962 52.132 44.997 53.464 44.992 53.832C44.988 54.199 43.122 55.564 40.847 56.864C38.571 58.164 34.799 60.987 32.466 63.138L28.223 67.049L17.112 66.374L6 65.699V68.85V72L11.25 72.006C25.916 72.022 39.501 75.573 62.201 85.323C73.261 90.074 82.863 93 87.394 93H90V90.228V87.456L83.25 86.179C79.538 85.477 69.75 82.043 61.5 78.548C53.25 75.053 43.886 71.384 40.691 70.395L34.882 68.598L37.191 66.749C46.24 59.504 56.98 55.163 67.883 54.345C74.807 53.826 83.752 54.787 88.25 56.534L90 57.214V54.076C90 52.208 89.392 50.704 88.5 50.362L87 49.786V44.834C87 41.592 87.367 40.109 88.063 40.539C89.124 41.195 93 38.365 93 36.935C93 35.812 70.426 18 69.002 18C68.329 18 65.628 19.8 63 22C60.372 24.2 57.947 26 57.611 26C57.275 26 57 24.875 57 23.5V21H54H51L51.009 26.25L51.018 31.5L47.776 34.164L44.535 36.828L46.361 38.847C47.366 39.957 48.821 40.622 49.594 40.326L51 39.786V44.913V50.041L47.25 48.157C42.2 45.621 34.526 43.249 28.75 42.439L24 41.773V37.386C24 32.596 24.296 32.382 28 34.5C29.375 35.286 31.738 35.945 33.25 35.965L36 36V33V30H33.635C30.972 30 26.532 26.863 24.913 23.837C23.408 21.026 24.312 20.593 27.857 22.426C29.531 23.292 32.048 24 33.45 24H36V21V18H33.4C29.92 18 24 12.08 24 8.6V6H21H18V8.6ZM62.75 29.699L57 34.308V42.173V50.038L59.75 49.426C61.263 49.09 63.288 48.601 64.25 48.34L66 47.865V43.433V39H69H72V43.399V47.799L76.5 48.157L81 48.514L80.992 41.507L80.984 34.5L75.027 29.75C71.75 27.137 68.941 25.02 68.785 25.045C68.628 25.069 65.912 27.164 62.75 29.699Z" fill="black"/>
</g>
</svg>
