<svg width="96" height="96" viewBox="0 0 96 96" fill="none" xmlns="http://www.w3.org/2000/svg">
<g id="creative-spaces">
<path id="Vector" fill-rule="evenodd" clip-rule="evenodd" d="M39 4.603C31.502 6.609 23.739 11.462 17.965 17.752C1.01801 36.213 2.24401 64.045 20.752 81.035C30.009 89.533 39.552 92.934 54.25 92.976L63 93V90.128V87.257L52.084 86.807L41.168 86.357L34.616 83.132C26.222 78.999 19.476 72.22 15.582 64.003L12.5 57.5V47.979V38.458L15.797 31.761C20.002 23.218 26.751 16.479 34.937 12.649L41.379 9.634L52.19 9.188L63 8.743V5.872V3L53.75 3.066C48.663 3.102 42.025 3.794 39 4.603ZM73.517 7.113C66.725 14.631 63.954 24.913 67.468 29.559L68.936 31.5L68.968 59.327L69 87.154L71.923 90.077C75.587 93.741 79.814 93.924 83.694 90.588L86.5 88.176L86.778 60.338L87.055 32.5L88.528 29.349C90.503 25.121 90.35 20.367 88.078 15.363C86.217 11.266 79.479 3 78 3C77.578 3 75.561 4.851 73.517 7.113ZM75.002 14.998C73.789 16.701 72.566 19.82 72.282 21.931L71.768 25.768L73.884 27.884C76.54 30.54 79.419 30.581 82 28C84.603 25.397 84.511 21.455 81.734 16.578C78.843 11.501 77.685 11.229 75.002 14.998ZM44.923 17.923C42.928 19.918 42 21.848 42 24C42 28.302 46.698 33 51 33C55.302 33 60 28.302 60 24C60 19.698 55.302 15 51 15C48.848 15 46.918 15.928 44.923 17.923ZM49.143 21.89C47.551 22.9 48.498 27.008 50.317 26.985C52.79 26.953 54.213 25.248 53.54 23.125C52.826 20.878 51.381 20.472 49.143 21.89ZM23.923 29.923C19.993 33.853 19.993 38.147 23.923 42.077C27.853 46.007 32.147 46.007 36.077 42.077C38.072 40.082 39 38.152 39 36C39 31.698 34.302 27 30 27C27.848 27 25.918 27.928 23.923 29.923ZM28.143 33.89C26.551 34.9 27.498 39.008 29.317 38.985C31.79 38.953 33.213 37.248 32.54 35.125C31.826 32.878 30.381 32.472 28.143 33.89ZM75 60.378V84.755L76.5 86L78 87.245L79.5 86L81 84.755V60.378V36H78H75V60.378ZM23.923 53.923C19.993 57.853 19.993 62.147 23.923 66.077C25.918 68.072 27.848 69 30 69C32.152 69 34.082 68.072 36.077 66.077C38.072 64.082 39 62.152 39 60C39 55.698 34.302 51 30 51C27.848 51 25.918 51.928 23.923 53.923ZM28.143 57.89C26.551 58.9 27.498 63.008 29.317 62.985C31.79 62.953 33.213 61.248 32.54 59.125C31.826 56.878 30.381 56.472 28.143 57.89ZM44.923 65.923C42.928 67.918 42 69.848 42 72C42 76.302 46.698 81 51 81C55.302 81 60 76.302 60 72C60 69.848 59.072 67.918 57.077 65.923C53.147 61.993 48.853 61.993 44.923 65.923ZM49.143 69.89C47.551 70.9 48.498 75.008 50.317 74.985C52.79 74.953 54.213 73.248 53.54 71.125C52.826 68.878 51.381 68.472 49.143 69.89Z" fill="black"/>
</g>
</svg>
