<svg width="96" height="96" viewBox="0 0 96 96" fill="none" xmlns="http://www.w3.org/2000/svg">
<g id="cycladic-homes">
<path id="Vector" fill-rule="evenodd" clip-rule="evenodd" d="M10.557 8.223L9 10.445V48.666V86.887L11.223 88.443L13.445 90H48.666H83.887L85.443 87.777L87 85.555V47.334V9.113L84.777 7.557L82.555 6H47.334H12.113L10.557 8.223ZM15 48V84H24H33V62.901V41.802L34.623 38.381C35.516 36.5 37.654 33.957 39.373 32.73L42.5 30.5H48H53.5L56.627 32.73C58.346 33.957 60.484 36.5 61.377 38.381L63 41.802V62.901V84H72H81V48V12H48H15V48ZM45.389 19.43C44.393 22.025 45.788 24.169 48.246 23.82L50.5 23.5V21V18.5L48.246 18.18C46.893 17.988 45.75 18.488 45.389 19.43ZM41.923 38.923L39 41.846V50.923V60H48H57V50.923V41.846L54.077 38.923C52.082 36.928 50.152 36 48 36C45.848 36 43.918 36.928 41.923 38.923ZM39 69V72H48H57V69V66H48H39V69ZM39 81V84H48H57V81V78H48H39V81Z" fill="black"/>
</g>
</svg>
