<svg width="96" height="96" viewBox="0 0 96 96" fill="none" xmlns="http://www.w3.org/2000/svg">
<g id="golfing">
<path id="Vector" fill-rule="evenodd" clip-rule="evenodd" d="M40.332 3.95899C31.536 6.05399 23.44 13.591 19.877 23L17.794 28.5L18.339 35.259C19.316 47.351 26.44 56.751 37.921 61.095L43.5 63.206L50.259 62.661C62.351 61.684 71.751 54.56 76.095 43.079L78.206 37.5L77.661 30.741C76.152 12.062 58.745 -0.427013 40.332 3.95899ZM38.444 11.374C26.05 17.145 20.826 30.641 26.374 42.556C32.145 54.95 45.641 60.174 57.556 54.626C69.95 48.855 75.174 35.359 69.626 23.444C63.855 11.05 50.359 5.82599 38.444 11.374ZM45.389 34.43C44.393 37.025 45.788 39.169 48.246 38.82L50.5 38.5V36V33.5L48.246 33.18C46.893 32.988 45.75 33.488 45.389 34.43ZM36.389 40.43C35.393 43.025 36.788 45.169 39.246 44.82L41.5 44.5V42V39.5L39.246 39.18C37.893 38.988 36.75 39.488 36.389 40.43ZM54.389 40.43C53.393 43.025 54.788 45.169 57.246 44.82L59.5 44.5V42V39.5L57.246 39.18C55.893 38.988 54.75 39.488 54.389 40.43ZM45.389 46.43C44.393 49.025 45.788 51.169 48.246 50.82L50.5 50.5V48V45.5L48.246 45.18C46.893 44.988 45.75 45.488 45.389 46.43ZM33 72V75H36.077C38.144 75 40.113 75.959 42.077 77.923L45 80.846V86.923V93H49.5H54V86.923V80.846L56.923 77.923C58.887 75.959 60.856 75 62.923 75H66V72V69H49.5H33V72Z" fill="black"/>
</g>
</svg>
