<svg width="96" height="96" viewBox="0 0 96 96" fill="none" xmlns="http://www.w3.org/2000/svg">
<g id="grand-pianos">
<path id="Vector" fill-rule="evenodd" clip-rule="evenodd" d="M15.491 4.86498C10.482 7.14098 5.429 12.798 3.997 17.733C3.281 20.204 3.007 32.167 3.202 52.5L3.5 83.5L6.25 83.816L9 84.133V88.566V93H12H15V88.5V84H48H81V88.5V93H84H87V88.566V84.133L89.75 83.816L92.5 83.5L92.778 68.591L93.055 53.683L91.466 48.897C89.441 42.8 83.346 36.646 77.286 34.582C74.595 33.665 69.324 33 64.745 33H56.846L53.923 30.077L51 27.154L50.978 23.327C50.934 15.663 45.346 7.71298 37.782 4.55298C32.557 2.36998 20.615 2.53798 15.491 4.86498ZM16.761 11.062C14.476 12.269 12.24 14.569 11.011 16.978L9 20.92V37.46V54H48.013H87.027L85.475 50.287C82.067 42.129 76.384 39.055 64.651 39.022C51.947 38.986 46.53 35.025 45.09 24.718C44.081 17.494 41.656 13.376 37.019 11.01C31.722 8.30698 21.932 8.33298 16.761 11.062ZM9 69V78H48H87V69V60H84H81V66V72H78H75V66V60H72H69V66V72H66H63V66V60H60H57V66V72H54H51V66V60H48H45V66V72H42H39V66V60H36H33V66V72H30H27V66V60H24H21V66V72H18H15V66V60H12H9V69Z" fill="black"/>
</g>
</svg>
