<svg width="96" height="96" viewBox="0 0 96 96" fill="none" xmlns="http://www.w3.org/2000/svg">
<g id="island">
<path id="Vector" fill-rule="evenodd" clip-rule="evenodd" d="M14.218 7.60599C10.313 9.59899 7.217 13.663 6.367 17.916L5.75 21H8.875C11.054 21 12 20.523 12 19.423C12 18.556 13.315 16.531 14.923 14.923C18.342 11.504 22.639 11.078 26.028 13.821L28.277 15.643L25.237 16.902C21.34 18.516 18.495 21.57 16.548 26.232C14.261 31.703 14.524 33 17.921 33H20.841L21.469 30.141C21.815 28.568 23.386 26.046 24.961 24.537L27.825 21.793L27.301 29.647L26.776 37.5L28.72 43.211L30.663 48.923L26.328 51.663C21.195 54.908 17.639 59.8 15.907 66C14.364 71.524 13.303 73 10.878 73H9V76.43V79.86L12.123 78.965C13.84 78.472 16.299 77.379 17.588 76.535C20.761 74.455 23.214 74.604 27.507 77.136C32.137 79.868 37.863 79.868 42.493 77.136C47.036 74.456 48.964 74.456 53.507 77.136C58.137 79.868 63.863 79.868 68.493 77.136C72.786 74.604 75.239 74.455 78.412 76.535C79.701 77.379 82.16 78.472 83.877 78.965L87 79.86V76.43V73H85.122C82.774 73 81.795 71.72 79.6 65.778C76.653 57.8 68.935 53.189 60.469 54.349L56.188 54.936L53.659 52.947C50.53 50.485 43.667 48 39.997 48H37.246L35.123 43.065C32.817 37.704 32.402 30.695 34.04 24.795L35.069 21.089L36.785 21.691C39.812 22.754 43.884 27.195 44.531 30.141L45.159 33H48.079C51.476 33 51.739 31.703 49.452 26.232C47.505 21.57 44.66 18.516 40.763 16.902L37.723 15.643L39.972 13.821C43.361 11.078 47.658 11.504 51.077 14.923C52.685 16.531 54 18.556 54 19.423C54 20.523 54.946 21 57.125 21H60.25L59.633 17.916C57.556 7.53199 44.862 2.68999 36.091 8.93499L33 11.136L29.872 8.90899C25.773 5.98999 18.562 5.38999 14.218 7.60599ZM31.5 55.881C26.735 58.069 24.61 60.295 22.525 65.287L20.973 69L23.237 69.004C24.481 69.006 26.973 69.906 28.774 71.004C30.575 72.102 33.377 73 35 73C36.623 73 39.425 72.102 41.226 71.004C43.027 69.906 46.075 69.007 48 69.007C49.925 69.007 52.973 69.906 54.774 71.004C58.934 73.54 63.066 73.54 67.226 71.004C69.027 69.906 71.287 69.006 72.25 69.004C77.144 68.993 70.449 61.272 64.743 60.346C62.436 59.971 60.04 60.332 57.968 61.366L54.761 62.966L52.709 60.357C50.12 57.065 43.559 54.044 39 54.044C37.075 54.044 33.7 54.87 31.5 55.881ZM15.226 86.004C13.425 87.102 11.288 88 10.476 88C9.462 88 9 89.073 9 91.43V94.86L12.123 93.965C13.84 93.472 16.299 92.379 17.588 91.535C20.761 89.455 23.214 89.604 27.507 92.136C29.525 93.327 32.842 94.273 35 94.273C37.158 94.273 40.475 93.327 42.493 92.136C44.485 90.961 46.963 90 48 90C49.037 90 51.515 90.961 53.507 92.136C55.525 93.327 58.842 94.273 61 94.273C63.158 94.273 66.475 93.327 68.493 92.136C72.786 89.604 75.239 89.455 78.412 91.535C79.701 92.379 82.16 93.472 83.877 93.965L87 94.86V91.43C87 89.073 86.538 88 85.524 88C84.712 88 82.575 87.102 80.774 86.004C76.6 83.459 71.4 83.459 67.226 86.004C63.066 88.54 58.934 88.54 54.774 86.004C50.6 83.459 45.4 83.459 41.226 86.004C39.425 87.102 36.623 88 35 88C33.377 88 30.575 87.102 28.774 86.004C26.973 84.906 23.925 84.007 22 84.007C20.075 84.007 17.027 84.906 15.226 86.004Z" fill="black"/>
</g>
</svg>
