<svg width="96" height="96" viewBox="0 0 96 96" fill="none" xmlns="http://www.w3.org/2000/svg">
<g id="lake-front">
<path id="Vector" fill-rule="evenodd" clip-rule="evenodd" d="M72 8.05C72 13.031 66.303 19 61.55 19C60.482 19 60 19.968 60 22.111V25.223L63.75 24.537C65.813 24.16 68.513 23.2 69.75 22.403L72 20.954V23.543C72 24.967 71.537 26.997 70.97 28.055C69.751 30.334 64.941 33 62.05 33H60V36V39L62.25 38.956C63.487 38.932 66.188 38.31 68.25 37.574L72 36.236V43.618V51H63H54V38.229V25.458L43.391 16.479L32.782 7.5H30H27.218L16.609 16.479L6 25.458V41.229V57H48H90V54V51H84H78V43.618V36.236L81.75 37.574C83.813 38.31 86.513 38.932 87.75 38.956L90 39V36.128V33.256L86.072 32.628C81.438 31.887 78 28.145 78 23.842V20.954L80.25 22.403C81.487 23.2 84.188 24.16 86.25 24.537L90 25.223V22.111C90 19.968 89.518 19 88.45 19C83.697 19 78 13.031 78 8.05V6H75H72V8.05ZM20.75 20.766L12 28.404V39.702V51H16.461H20.922L21.211 42.25L21.5 33.5H30H38.5L38.789 42.25L39.078 51H43.539H48V39.7V28.399L39.041 20.7C34.114 16.465 29.952 13.029 29.791 13.064C29.631 13.099 25.563 16.565 20.75 20.766ZM27 45V51H30H33V45V39H30H27V45ZM11.303 65.807L6.106 68.5L6.053 71.25L6 74H8.268C9.515 74 12.191 72.875 14.215 71.5C16.238 70.125 18.842 69 20 69C21.158 69 23.762 70.125 25.785 71.5L29.464 74H34H38.536L42.215 71.5C44.238 70.125 46.842 69 48 69C49.158 69 51.762 70.125 53.785 71.5L57.464 74H62H66.536L70.215 71.5C72.238 70.125 74.842 69 76 69C77.158 69 79.762 70.125 81.785 71.5C83.809 72.875 86.485 74 87.732 74H90V71C90 69.041 89.495 68 88.544 68C87.744 68 85.431 66.875 83.405 65.5C78.659 62.279 73.701 62.27 68.5 65.474C63.393 68.62 60.012 68.626 55.405 65.5C50.659 62.279 45.701 62.27 40.5 65.474C35.393 68.62 32.012 68.626 27.405 65.5C22.642 62.268 17.963 62.357 11.303 65.807ZM11.303 80.807L6.106 83.5L6.053 86.25L6 89H8.268C9.515 89 12.191 87.875 14.215 86.5C16.238 85.125 18.842 84 20 84C21.158 84 23.762 85.125 25.785 86.5L29.464 89H34H38.536L42.215 86.5C44.238 85.125 46.842 84 48 84C49.158 84 51.762 85.125 53.785 86.5L57.464 89H62H66.536L70.215 86.5C72.238 85.125 74.842 84 76 84C77.158 84 79.762 85.125 81.785 86.5C83.809 87.875 86.485 89 87.732 89H90V86C90 84.041 89.495 83 88.544 83C87.744 83 85.431 81.875 83.405 80.5C78.659 77.279 73.701 77.27 68.5 80.474C63.393 83.62 60.012 83.626 55.405 80.5C50.659 77.279 45.701 77.27 40.5 80.474C35.393 83.62 32.012 83.626 27.405 80.5C22.642 77.268 17.963 77.357 11.303 80.807Z" fill="black"/>
</g>
</svg>
