<svg width="97" height="96" viewBox="0 0 97 96" fill="none" xmlns="http://www.w3.org/2000/svg">
<g id="mansion" clip-path="url(#clip0_2_59)">
<path id="Vector" fill-rule="evenodd" clip-rule="evenodd" d="M12.5 10.45V14.9L6.75 15.2L1 15.5V52.5V89.5L47.886 89.76L94.771 90.02L96.136 88.888L97.5 87.755V51.378C97.5 31.37 97.162 15.053 96.75 15.118C96.337 15.184 93.412 15.184 90.25 15.118L84.5 15V10.5V6H81.5H78.5V10.5V15H48.5H18.5V10.5V6H15.5H12.5V10.45ZM0.953001 52.5C0.953001 72.85 1.086 81.033 1.249 70.685C1.412 60.336 1.411 43.686 1.248 33.685C1.085 23.683 0.952001 32.15 0.953001 52.5ZM6.5 30V39H16.309H26.119L31.059 33.263C33.777 30.108 37.284 26.058 38.854 24.263L41.707 21H24.104H6.5V30ZM57.969 24.145C59.424 25.875 62.907 29.925 65.708 33.145L70.8 39H80.65H90.5V30V21H72.911H55.322L57.969 24.145ZM39.25 33.203L30.5 43.335V63.667V84H33.5H36.5V75.401C36.5 65.57 38.01 61.311 42.42 58.706C47.862 55.492 55.579 57.478 58.794 62.92L60.5 65.809V74.904V84H63.5H66.5V63.558V43.116L57.922 33.308C53.204 27.914 49.041 23.404 48.672 23.286C48.302 23.168 44.063 27.631 39.25 33.203ZM45.889 40.43C44.893 43.025 46.288 45.169 48.746 44.82L51 44.5V42V39.5L48.746 39.18C47.393 38.988 46.25 39.488 45.889 40.43ZM6.5 58.441V71.881L9.25 70.447C10.762 69.658 13.575 69.012 15.5 69.012C17.425 69.012 20.238 69.658 21.75 70.447L24.5 71.881V58.441V45H15.5H6.5V58.441ZM72.5 58.441V71.881L75.25 70.447C76.763 69.658 79.575 69.012 81.5 69.012C83.425 69.012 86.237 69.658 87.75 70.447L90.5 71.881V58.441V45H81.5H72.5V58.441ZM44.5 65L42.5 67V75.5V84H48.5H54.5V75.5V67L52.5 65C51.4 63.9 49.6 63 48.5 63C47.4 63 45.6 63.9 44.5 65ZM9.423 77.923C7.815 79.531 6.5 81.556 6.5 82.423V84H15.5H24.5V82.423C24.5 81.556 23.185 79.531 21.577 77.923C17.647 73.993 13.353 73.993 9.423 77.923ZM75.423 77.923C73.815 79.531 72.5 81.556 72.5 82.423V84H81.5H90.5V82.423C90.5 81.556 89.185 79.531 87.577 77.923C83.647 73.993 79.353 73.993 75.423 77.923Z" fill="black"/>
</g>
<defs>
<clipPath id="clip0_2_59">
<rect width="96" height="96" fill="white" transform="translate(0.5)"/>
</clipPath>
</defs>
</svg>
