<svg width="96" height="96" viewBox="0 0 96 96" fill="none" xmlns="http://www.w3.org/2000/svg">
<g id="new">
<path id="Vector" fill-rule="evenodd" clip-rule="evenodd" d="M25.205 4.83397C11.142 9.85197 2.065 23.764 3.247 38.489C4.188 50.213 11.226 60.512 21.858 65.725L27.5 68.49L35 68.495C39.125 68.498 43.737 68.154 45.25 67.731L48 66.962V73.981V81H56.281H64.563L70.5 87L76.437 93H84.719H93V84.736V76.472L79.583 63.083L66.166 49.693L67.058 47.347L67.95 45H64.597H61.243L59.966 48.082L58.689 51.164L72.845 65.344L87 79.525V83.263V87H83.219H79.437L73.5 81L67.563 75H60.781H54V68.122V61.245L52.477 59.981L50.954 58.717L46.752 60.608C43.873 61.904 40.338 62.488 35.525 62.461L28.5 62.422L24.366 60.25C19.113 57.49 14.526 52.909 11.735 47.634L9.546 43.5V36V28.5L11.735 24.366C18.142 12.26 31.665 6.37097 43.88 10.366C49.958 12.354 57.356 12.575 56.754 10.75C56.527 10.063 53.797 8.19497 50.689 6.60097L45.036 3.70197L37.768 3.32297L30.5 2.94397L25.205 4.83397ZM65.706 7.15697C64.959 12.727 60.727 16.959 55.157 17.706L51 18.263V21V23.737L55.157 24.294C57.915 24.664 60.295 25.833 62.231 27.769C64.167 29.705 65.336 32.085 65.706 34.843L66.263 39H69H71.737L72.294 34.843C73.041 29.273 77.273 25.041 82.843 24.294L87 23.737V21V18.263L82.843 17.706C77.273 16.959 73.041 12.727 72.294 7.15697L71.737 2.99997H69H66.263L65.706 7.15697ZM66.468 19.035L64.626 21.071L66.813 23.258L69 25.444L71.187 23.258L73.374 21.071L71.532 19.035C70.519 17.916 69.38 17 69 17C68.62 17 67.481 17.916 66.468 19.035ZM23.923 23.923C19.993 27.853 19.993 32.147 23.923 36.077C27.853 40.007 32.147 40.007 36.077 36.077C38.072 34.082 39 32.152 39 30C39 25.698 34.302 21 30 21C27.848 21 25.918 21.928 23.923 23.923ZM28.143 27.89C26.551 28.9 27.498 33.008 29.317 32.985C31.79 32.953 33.213 31.248 32.54 29.125C31.826 26.878 30.381 26.472 28.143 27.89Z" fill="black"/>
</g>
</svg>
