<svg width="96" height="96" viewBox="0 0 96 96" fill="none" xmlns="http://www.w3.org/2000/svg">
<g id="raids">
<path id="Vector" fill-rule="evenodd" clip-rule="evenodd" d="M6.461 7.24003C6.195 7.93503 6.095 26.727 6.238 49.001L6.5 89.5H48H89.5V48V6.50003L48.223 6.23903L6.946 5.97803L6.461 7.24003ZM12 21V30H48H84V21V12H48H12V21ZM24.389 19.43C23.393 22.025 24.788 24.169 27.246 23.82L29.5 23.5V21V18.5L27.246 18.18C25.893 17.988 24.75 18.488 24.389 19.43ZM45.389 19.43C44.393 22.025 45.788 24.169 48.246 23.82L50.5 23.5V21V18.5L48.246 18.18C46.893 17.988 45.75 18.488 45.389 19.43ZM66.389 19.43C65.393 22.025 66.788 24.169 69.246 23.82L71.5 23.5V21V18.5L69.246 18.18C67.893 17.988 66.75 18.488 66.389 19.43ZM12.003 43.75L12.006 51.5L15.66 51.582L19.313 51.663L21.657 54.387L24 57.112V70.556V84H27H30V72.316V60.631L32.077 56.342L34.153 52.052L41.129 47.414L48.105 42.776L54.927 47.313L61.748 51.849L63.874 56.24L66 60.631V72.316V84H69H72V70.556V57.112L74.343 54.387L76.687 51.663L80.34 51.582L83.994 51.5L83.997 43.75L84 36H48H12L12.003 43.75ZM43.246 53.102C38.273 56.624 36 60.498 36 65.45V69H48H60V65.45C60 60.427 57.69 56.571 52.569 53.047C50.133 51.371 47.996 50.02 47.82 50.045C47.644 50.069 45.586 51.445 43.246 53.102ZM13.2 58.2C12.397 59.003 12 63.467 12 71.7V84H15H18V71.7C18 60.273 17.332 57 15 57C14.67 57 13.86 57.54 13.2 58.2ZM79.2 58.2C78.397 59.003 78 63.467 78 71.7V84H81H84V71.7C84 60.273 83.332 57 81 57C80.67 57 79.86 57.54 79.2 58.2ZM36 79.5V84H48H60V79.5V75H48H36V79.5Z" fill="black"/>
</g>
</svg>
