<svg width="97" height="96" viewBox="0 0 97 96" fill="none" xmlns="http://www.w3.org/2000/svg">
<g id="sheperds-hut">
<path id="Vector" fill-rule="evenodd" clip-rule="evenodd" d="M73 7.5V12H43.468H13.936L10.718 13.371C4.361 16.08 1.018 22.407 1.006 31.75L1 36H2.5H4V52.066C4 61.228 4.445 68.963 5.035 70.066L6.07 72H10.465H14.86L13.979 75.072C11.999 81.978 18.189 90 25.5 90C32.811 90 39.001 81.978 37.021 75.072L36.14 72H44.07H52V81V90H55.5H59V87V84H66H73V87V90H76.5H80V81V72H86.465H92.93L93.965 70.066C94.555 68.963 95 61.228 95 52.066C95 42.022 95.375 36 96 36C96.577 36 97 32.859 97 28.577V21.153L94.297 17.941C91.352 14.441 86.517 12 82.532 12H80V7.5V3H76.5H73V7.5ZM12.5 19.155C9.337 20.885 8 23.123 8 26.691V30H49.5H91V27.082C91 22.799 90.091 21.099 86.928 19.463L84.099 18L49.3 18.03C26.049 18.051 13.836 18.424 12.5 19.155ZM11 51V66H31.5H52V51V36H31.5H11V51ZM59 45V54H66H73V45V36H66H59V45ZM80 51V66H84H88V51V36H84H80V51ZM59 63V66H66H73V63V60H66H59V63ZM21.655 73.829C18.249 77.592 20.781 84 25.674 84C30.352 84 32.753 76.897 29.171 73.655C26.772 71.484 23.713 71.555 21.655 73.829ZM59 75V78H66H73V75V72H66H59V75Z" fill="black"/>
</g>
</svg>
