<svg width="96" height="96" viewBox="0 0 96 96" fill="none" xmlns="http://www.w3.org/2000/svg">
<g id="ski-in-out">
<path id="Vector" fill-rule="evenodd" clip-rule="evenodd" d="M73 3.70399C69.683 4.91099 65.938 9.53699 65.362 13.138L64.766 16.862L62.318 15.931C56.102 13.568 47.92 15.802 42.415 21.365C40.164 23.639 37.88 26.314 37.338 27.31L36.353 29.12L21.927 23.693L7.50001 18.267L6.17201 20.722C5.44101 22.072 5.06501 23.399 5.33701 23.67C5.60801 23.941 16.331 28.118 29.165 32.951L52.5 41.739L53.715 39.62C54.383 38.454 54.945 37.187 54.965 36.804C54.984 36.421 52.3 35.123 49 33.92C45.7 32.716 43 31.326 43 30.831C43 28.717 46.584 24.743 50.113 22.942C54.958 20.471 58.569 20.486 63.5 23C65.658 24.1 67.508 25 67.613 25C67.717 25 68.696 23.485 69.788 21.634C70.966 19.638 71.577 17.237 71.289 15.732C70.719 12.75 73.9 8.99999 77 8.99999C79.784 8.99999 83 12.502 83 15.534V18.067L79.474 20.148C76.403 21.96 74 24.704 74 26.399C74 26.691 74.874 27.398 75.943 27.969L77.886 29.009L82.258 26.059C87.031 22.837 89 19.566 89 14.857C89 7.10099 80.311 1.04299 73 3.70399ZM64.733 38.396C62.13 42.375 60 46.067 60 46.602C60 47.137 62.25 49.791 65 52.5C67.75 55.209 70 57.784 70 58.223C70 58.663 66.841 63.299 62.98 68.527L55.961 78.031L52.909 76.453L49.858 74.875L52.429 71.438C53.843 69.547 56.125 66.495 57.5 64.656C58.875 62.816 60 60.651 60 59.844C60 58.318 48.748 48.491 44.345 46.172C41.279 44.557 40.56 45.111 41.397 48.444C41.982 50.776 44.872 53.915 50.805 58.663L53.111 60.508L48.469 66.504C45.915 69.802 43.528 72.609 43.163 72.742C42.798 72.875 34.626 70.083 25.003 66.538C15.38 62.994 7.21801 60.41 6.86601 60.797C6.51301 61.184 5.94401 62.434 5.60001 63.575L4.97601 65.651L41.245 78.825C61.192 86.071 79.002 92 80.822 92C84.7 92 87.457 90.729 91.25 87.191C94.582 84.083 94.742 82.21 91.768 81.11L89.537 80.284L86.867 83.142C83.508 86.738 80.41 86.802 71.369 83.463C67.591 82.067 63.914 80.722 63.197 80.474C62.33 80.173 63.867 77.424 67.788 72.261C77.878 58.977 78.176 57.241 71.575 50.184L67.15 45.453L68.846 43.204L70.542 40.955L72.256 43.857C74.289 47.298 79.098 49.778 85.418 50.644L90 51.272V48.136V45H87.468C86.075 45 83.346 44.336 81.404 43.524L77.872 42.049L76.186 38.094C75.259 35.918 73.368 33.469 71.983 32.651L69.467 31.163L64.733 38.396Z" fill="black"/>
</g>
</svg>
