<svg width="96" height="96" viewBox="0 0 96 96" fill="none" xmlns="http://www.w3.org/2000/svg">
<g id="tiny-homes">
<path id="Vector" fill-rule="evenodd" clip-rule="evenodd" d="M19.2 4.2L18 5.4V43.2V81H12H6V84V87H12H18V90V93H21H24V90V87H48H72V90V93H75H78V90V87H84H90V84V81H84H78V43.5V6H75H72V15.5C72 20.725 71.772 25 71.494 25C71.215 25 59.867 20.05 46.275 14C32.682 7.95 21.3 3 20.981 3C20.661 3 19.86 3.54 19.2 4.2ZM24 46V81H28.5H33V63.5V46L35 44L37 42H48H59L61 44L63 46V63.5V81H67.517H72.035L71.767 56.328L71.5 31.656L48.5 21.381C35.85 15.731 25.163 11.083 24.75 11.054C24.337 11.024 24 26.75 24 46ZM30.958 25.55L29.672 27.1L31.336 28.764L33 30.429L34.664 28.764L36.328 27.1L35.042 25.55C34.334 24.698 33.415 24 33 24C32.585 24 31.666 24.698 30.958 25.55ZM39 58.5V69H48H57V58.5V48H48H39V58.5ZM39 78V81H48H57V78V75H48H39V78Z" fill="black"/>
</g>
</svg>
