<svg width="96" height="96" viewBox="0 0 96 96" fill="none" xmlns="http://www.w3.org/2000/svg">
<g id="tree-house">
<path id="Vector" fill-rule="evenodd" clip-rule="evenodd" d="M27.536 13.447C17.106 19.132 8.438 24.187 8.273 24.682C8.108 25.176 8.605 26.445 9.377 27.501L10.781 29.421L13.64 27.993C15.213 27.207 16.838 26.4 17.25 26.199C17.663 25.998 18 32.171 18 39.917V54H12H6V57V60H12.908H19.816L29.408 68.179L39 76.358V83.179V90H42H45V87V84H48H51V87V90H54H57V83.179V76.358L66.592 68.179L76.184 60H83.092H90V57V54H84H78V40C78 32.3 78.268 26 78.596 26C78.923 26 80.532 26.788 82.17 27.75L85.148 29.5L86.588 27.54C87.379 26.463 87.897 25.192 87.739 24.717C87.368 23.603 49.226 2.98198 47.674 3.05598C47.028 3.08698 37.966 7.76298 27.536 13.447ZM35.25 16.279L24 22.451V38.225V54H31.465H38.93L39.215 43.75L39.5 33.5H48H56.5L56.785 43.75L57.07 54H64.535H72V38.164V22.329L60.567 16.164C54.279 12.774 48.541 10.024 47.817 10.054C47.093 10.084 41.438 12.885 35.25 16.279ZM45.389 19.43C44.393 22.025 45.788 24.169 48.246 23.82L50.5 23.5V21V18.5L48.246 18.18C46.893 17.988 45.75 18.488 45.389 19.43ZM45 46.5V54H48H51V46.5V39H48H45V46.5ZM30.455 60.927C30.77 61.437 32.822 63.275 35.014 65.011L39 68.168V64.084V60H34.441C31.896 60 30.135 60.409 30.455 60.927ZM45 63V66H48H51V63V60H48H45V63ZM57 64.084V68.168L60.986 65.011C66.641 60.532 66.702 60 61.559 60H57V64.084ZM45 75V78H48H51V75V72H48H45V75Z" fill="black"/>
</g>
</svg>
