<svg width="96" height="96" viewBox="0 0 96 96" fill="none" xmlns="http://www.w3.org/2000/svg">
<g id="vineyard">
<path id="Vector" fill-rule="evenodd" clip-rule="evenodd" d="M30 6V9H37.5H45V11.965C45 13.866 44.311 15.299 43.078 15.958C42.021 16.524 40.473 17.67 39.637 18.505L38.119 20.024L33.75 18.856C28.381 17.42 25.112 18.161 21.681 21.592C17.205 26.067 16.883 33.351 20.967 37.734L23.011 39.929L21.849 44.273C20.496 49.335 21.112 52.67 23.967 55.734L26.011 57.929L24.849 62.273C24.21 64.663 23.974 67.759 24.323 69.152C25.188 72.599 29.515 76.735 33.073 77.516L36 78.159V81.175C36 89.998 46.411 95.824 54.08 91.294C57.274 89.407 60 84.54 60 80.724V78.25L62.798 77.69C69.305 76.389 73.517 68.085 71.084 61.357L69.885 58.04L71.93 55.845C74.636 52.94 75.577 47.486 74.084 43.357L72.885 40.04L74.93 37.845C77.249 35.355 78.506 30.152 77.63 26.663C76.085 20.507 67.828 16.576 61.357 18.916L58.04 20.115L55.831 18.058C54.617 16.926 53.033 16 52.311 16C51.479 16 51 14.721 51 12.5V9H58.5H66V6V3H48H30V6ZM44 23C42.9 24.1 42 25.9 42 27C42 28.1 42.9 29.9 44 31C45.1 32.1 46.9 33 48 33C50.576 33 54 29.576 54 27C54 25.9 53.1 24.1 52 23C50.9 21.9 49.1 21 48 21C46.9 21 45.1 21.9 44 23ZM26 26C24.9 27.1 24 28.9 24 30C24 32.576 27.424 36 30 36C32.576 36 36 32.576 36 30C36 28.9 35.1 27.1 34 26C32.9 24.9 31.1 24 30 24C28.9 24 27.1 24.9 26 26ZM62 26C60.9 27.1 60 28.9 60 30C60 31.1 60.9 32.9 62 34C63.1 35.1 64.9 36 66 36C67.1 36 68.9 35.1 70 34C71.1 32.9 72 31.1 72 30C72 28.9 71.1 27.1 70 26C68.9 24.9 67.1 24 66 24C64.9 24 63.1 24.9 62 26ZM44 41C42.9 42.1 42 43.9 42 45C42 46.1 42.9 47.9 44 49C45.1 50.1 46.9 51 48 51C50.576 51 54 47.576 54 45C54 43.9 53.1 42.1 52 41C50.9 39.9 49.1 39 48 39C46.9 39 45.1 39.9 44 41ZM29.061 43.939C27.928 45.072 27 46.9 27 48C27 50.381 30.357 54 32.566 54C35.177 54 38.112 51.99 37.335 50.734C36.939 50.093 36.358 47.978 36.044 46.034L35.473 42.5L33.298 42.189C32.091 42.016 30.205 42.795 29.061 43.939ZM60.588 43.25C60.396 43.938 59.776 46.193 59.209 48.263L58.179 52.026L60.024 53.013C61.038 53.556 62.573 54 63.434 54C65.643 54 69 50.381 69 48C69 43.92 61.572 39.725 60.588 43.25ZM44 59C42.9 60.1 42 61.9 42 63C42 65.576 45.424 69 48 69C50.576 69 54 65.576 54 63C54 61.9 53.1 60.1 52 59C50.9 57.9 49.1 57 48 57C46.9 57 45.1 57.9 44 59ZM32 62C30.9 63.1 30 64.9 30 66C30 68.504 33.399 72 35.833 72C38.59 72 39.091 70.969 37.465 68.646C36.659 67.496 36 65.08 36 63.277C36 59.516 34.851 59.149 32 62ZM59.994 62.75C59.99 64.263 59.359 66.706 58.59 68.179C57.049 71.132 57.408 72 60.167 72C62.601 72 66 68.504 66 66C66 63.917 62.736 60 61 60C60.45 60 59.997 61.237 59.994 62.75ZM44 77C42.9 78.1 42 79.9 42 81C42 83.576 45.424 87 48 87C50.576 87 54 83.576 54 81C54 79.9 53.1 78.1 52 77C50.9 75.9 49.1 75 48 75C46.9 75 45.1 75.9 44 77Z" fill="black"/>
</g>
</svg>
