<svg xmlns="http://www.w3.org/2000/svg" className="w-4 h-4 hover:text-black" fill="currentColor" viewBox="0 0 24 24">
                <path d="M7.75 2C4.574 2 2 4.574 2 7.75v8.5C2 19.426 4.574 22 7.75 22h8.5c3.176 0 5.75-2.574 5.75-5.75v-8.5C22 4.574 19.426 2 16.25 2h-8.5zm0 1.5h8.5c2.346 0 4.25 1.904 4.25 4.25v8.5c0 2.346-1.904 4.25-4.25 4.25h-8.5C5.404 20.5 3.5 18.596 3.5 16.25v-8.5C3.5 5.404 5.404 3.5 7.75 3.5zm8.75 2a.75.75 0 100 1.5.75.75 0 000-1.5zM12 7a5 5 0 100 10 5 5 0 000-10zm0 1.5a3.5 3.5 0 110 7 3.5 3.5 0 010-7z" />
              </svg>